# Created by FreeCAD <http://www.freecadweb.org>
v -0.000000 -0.750000 -0.000000
v 0.750000 -0.750000 -0.000000
v -0.000000 -0.750000 0.037500
v 0.750000 -0.750000 0.037500
v 0.750000 0.000000 0.000000
v 0.750000 0.000000 0.037500
v 0.075000 0.000000 0.000000
v 0.075000 0.000000 0.037500
v 0.074358 -0.009789 -0.000000
v 0.074358 -0.009789 0.037500
v 0.072444 -0.019411 -0.000000
v 0.072444 -0.019411 0.037500
v 0.069291 -0.028701 -0.000000
v 0.069291 -0.028701 0.037500
v 0.064952 -0.037500 -0.000000
v 0.064952 -0.037500 0.037500
v 0.059501 -0.045657 -0.000000
v 0.059501 -0.045657 0.037500
v 0.053033 -0.053033 -0.000000
v 0.053033 -0.053033 0.037500
v 0.045657 -0.059501 -0.000000
v 0.045657 -0.059501 0.037500
v 0.037500 -0.064952 -0.000000
v 0.037500 -0.064952 0.037500
v 0.028701 -0.069291 -0.000000
v 0.028701 -0.069291 0.037500
v 0.019411 -0.072444 -0.000000
v 0.019411 -0.072444 0.037500
v 0.009789 -0.074358 -0.000000
v 0.009789 -0.074358 0.037500
v -0.000000 -0.075000 -0.000000
v -0.000000 -0.075000 0.037500
vn 0.000000 -1.000000 0.000000
vn 0.000000 -1.000000 0.000000
vn 1.000000 0.000000 0.000000
vn 1.000000 -0.000000 0.000000
vn 0.000000 1.000000 -0.000000
vn 0.000000 1.000000 0.000000
vn -0.997859 0.065403 0.000000
vn -0.997859 0.065403 0.000000
vn -0.980785 0.195090 0.000000
vn -0.980785 0.195090 0.000000
vn -0.946930 0.321440 0.000000
vn -0.946930 0.321440 0.000000
vn -0.896873 0.442289 0.000000
vn -0.896873 0.442289 0.000000
vn -0.831469 0.555570 0.000000
vn -0.831469 0.555570 0.000000
vn -0.751840 0.659346 0.000000
vn -0.751840 0.659346 0.000000
vn -0.659346 0.751840 0.000000
vn -0.659346 0.751840 0.000000
vn -0.555570 0.831469 0.000000
vn -0.555570 0.831469 0.000000
vn -0.442289 0.896873 0.000000
vn -0.442289 0.896873 0.000000
vn -0.321440 0.946930 0.000000
vn -0.321440 0.946930 0.000000
vn -0.195090 0.980785 0.000000
vn -0.195090 0.980785 0.000000
vn -0.065403 0.997859 0.000000
vn -0.065403 0.997859 0.000000
vn -1.000000 0.000000 0.000000
vn -1.000000 0.000000 0.000000
vn 0.000000 0.000000 -1.000000
vn -0.000000 0.000000 -1.000000
vn 0.000000 0.000000 -1.000000
vn -0.000000 0.000000 -1.000000
vn -0.000000 0.000000 -1.000000
vn 0.000000 0.000000 -1.000000
vn 0.000000 0.000000 -1.000000
vn -0.000000 0.000000 -1.000000
vn -0.000000 0.000000 -1.000000
vn 0.000000 0.000000 -1.000000
vn 0.000000 0.000000 -1.000000
vn 0.000000 0.000000 -1.000000
vn -0.000000 0.000000 -1.000000
vn 0.000000 0.000000 -1.000000
vn 0.000000 0.000000 1.000000
vn 0.000000 0.000000 1.000000
vn 0.000000 0.000000 1.000000
vn 0.000000 0.000000 1.000000
vn 0.000000 0.000000 1.000000
vn 0.000000 0.000000 1.000000
vn 0.000000 0.000000 1.000000
vn 0.000000 0.000000 1.000000
vn 0.000000 0.000000 1.000000
vn 0.000000 0.000000 1.000000
vn 0.000000 0.000000 1.000000
vn 0.000000 0.000000 1.000000
vn 0.000000 0.000000 1.000000
vn 0.000000 0.000000 1.000000
f 1//1 2//1 3//1
f 3//2 2//2 4//2
f 2//3 5//3 4//3
f 4//4 5//4 6//4
f 5//5 7//5 6//5
f 6//6 7//6 8//6
f 7//7 9//7 8//7
f 8//8 9//8 10//8
f 10//9 11//9 12//9
f 9//10 11//10 10//10
f 12//11 13//11 14//11
f 11//12 13//12 12//12
f 14//13 15//13 16//13
f 13//14 15//14 14//14
f 16//15 17//15 18//15
f 15//16 17//16 16//16
f 18//17 19//17 20//17
f 17//18 19//18 18//18
f 20//19 21//19 22//19
f 19//20 21//20 20//20
f 22//21 23//21 24//21
f 21//22 23//22 22//22
f 24//23 25//23 26//23
f 23//24 25//24 24//24
f 26//25 27//25 28//25
f 25//26 27//26 26//26
f 28//27 29//27 30//27
f 27//28 29//28 28//28
f 30//29 31//29 32//29
f 29//30 31//30 30//30
f 31//31 1//31 32//31
f 32//32 1//32 3//32
f 31//33 29//33 1//33
f 29//34 27//34 1//34
f 27//35 25//35 1//35
f 25//36 23//36 1//36
f 23//37 21//37 1//37
f 19//38 2//38 21//38
f 21//39 2//39 1//39
f 19//40 17//40 2//40
f 7//41 5//41 9//41
f 9//42 5//42 11//42
f 11//43 5//43 13//43
f 13//44 5//44 15//44
f 15//45 5//45 17//45
f 17//46 5//46 2//46
f 30//47 32//47 3//47
f 28//48 30//48 3//48
f 26//49 28//49 3//49
f 24//50 26//50 3//50
f 22//51 24//51 3//51
f 4//52 20//52 22//52
f 4//53 22//53 3//53
f 18//54 20//54 4//54
f 6//55 8//55 10//55
f 6//56 10//56 12//56
f 6//57 12//57 14//57
f 6//58 14//58 16//58
f 6//59 16//59 18//59
f 6//60 18//60 4//60
